
<svg xmlns="http://www.w3.org/2000/svg" version="1.1" xmlns:xlink="http://www.w3.org/1999/xlink" preserveAspectRatio="none" x="0px" y="0px" width="1280px" height="1024px" viewBox="280 375 720 620">
<defs>
<g id="Layer19_0_FILL">
<path fill="#CCCCCC" stroke="none" d="
M 787.4 841.5
Q 793.4 841.5 793.4 835.5
L 793.4 775 640 775 640 841.5 787.4 841.5
M 793.4 682
L 793.4 775 793.4 835.5
Q 793.4 841.5 787.4 841.5
L 640 841.5 640 864.2 674.8 864.2
Q 680.8 864.2 680.8 870.2
L 680.8 965.95 680.8 870.2
Q 680.8 864.2 674.8 864.2
L 640 864.2 640 966.75 640 975.55 643.85 975.55
Q 643.9 975.55 644 975.55 644.55 975.5 645.15 975.55 663.156640625 975.505078125 680.8 974.9 682.8025390625 974.8263671875 684.8 974.75 694.468359375 974.378125 704 973.85 706.003125 973.762890625 708 973.65 751.682421875 971.0271484375 793 964.9 795.002734375 964.605078125 797 964.3 805.8662109375 962.9578125 814.6 961.45 816.603515625 961.1044921875 818.6 960.75 834.6966796875 957.867578125 850.4 954.4 852.4033203125 953.996875 854.4 953.55 861.6806640625 951.9060546875 868.9 950.15
L 868.9 843 868.9 704 868.9 655 640 655 640 682 793.4 682 863.3 682 793.4 682
M 844.4 704
Q 850.4 704 850.4 710
L 850.4 944.75 850.4 710
Q 850.4 704 844.4 704
L 820.6 704
Q 814.6 704 814.6 710
L 814.6 714 814.6 951.9 814.6 714 814.6 710
Q 814.6 704 820.6 704
L 844.4 704
M 787 863.2
Q 793 863.2 793 869.2
L 793 955.5 793 869.2
Q 793 863.2 787 863.2
L 710 863.2
Q 704 863.2 704 869.2
L 704 964.8 704 869.2
Q 704 863.2 710 863.2
L 787 863.2
M 773.4 701
L 773.4 714 640 714 640 775 793.4 775 793.4 682 640 682 640 699.4 773.4 699.4 780.6 699.4 773.4 699.4 640 699.4 640 701 773.4 701
M 810 542
L 834 542 834 630 844 630 844 542 856.35 542
Q 839.998828125 495.398828125 802.25 457.65 776.6478515625 432.0287109375 746.95 416.25
L 652.5 416 652.5 391.2
Q 646.949609375 390.95 641.3 390.95 640.6494140625 390.95 640 390.95
L 640 433 693 433 694.05 439 714 439 731 527 709.35 527 712 542 640 542 640 560 696 560 696 618 640 618 640 630 773 630 773 542 799 542 799 630 810 630 810 542
M 705 587.7
Q 705 575.05 713.9 566.1 722.85 557.2 735.5 557.2 748.15 557.2 757.05 566.1 766 575.05 766 587.7 766 600.35 757.05 609.25 748.15 618.2 735.5 618.2 722.85 618.2 713.9 609.25 705 600.35 705 587.7 Z"/>

<path fill="#162973" stroke="none" d="
M 979.9 914.2
Q 981.6087890625 913.49140625 983.25 912.75
L 964.5 894 964.5 920.35
Q 965.225390625 920.0818359375 965.95 919.8 967.25 919.3 968.5 918.8 974.25 916.55 979.9 914.2
M 986.5 872
L 986.5 841 964.5 819 964.5 894 986.5 872
M 696 618
L 696 560 640 560 640 618 696 618
M 799 542
L 773 542 773 630 799 630 799 542
M 694.05 439
L 693 433 640 433 640 445.3
Q 652.1537109375 446.8037109375 661.15 455.8 672 466.65 672 482 672 497.35 661.15 508.15 657.7947265625 511.520703125 654 513.85 651.86953125 515.153125 649.6 516.1 645.07578125 518.068359375 640 518.7
L 640 542 712 542 709.35 527 694.05 439
M 714 439
L 694.05 439 709.35 527 731 527 714 439
M 746.95 416.25
Q 746.7357421875 416.124609375 746.5 416 703.72421875 393.3990234375 652.5 391.2
L 652.5 416 746.95 416.25
M 856.35 542
L 844 542 844 630 866.1 630 844 630 834 630 810 630 799 630 773 630 640 630 640 655 868.9 655 868.9 622.6
Q 868.9431640625 621.1919921875 868.95 619.75 868.95 619.20078125 868.95 618.65 868.95 577.7189453125 856.35 542
M 834 542
L 810 542 810 630 834 630 834 542 Z"/>

<path fill="#1E3799" stroke="none" d="
M 318 921.3
L 318 894 298.5 913.5
Q 303.01640625 915.3927734375 307.6 917.25 312.773828125 919.3123046875 318 921.3
M 318 819
L 296 841 296 872 318 894 318 819
M 536.1 416
L 630 416 630 391.2
Q 578.83984375 393.4234375 536.1 416
M 640 560
L 601 560 601 618 640 618 640 560
M 503.4 542
L 486.4 542 486.4 630 475 630 415.2 630 475 630 475 542 426.15 542
Q 413.6 577.726171875 413.6 618.65 413.6 619.2 413.6 619.75
L 413.6 655 640 655 640 630 503.4 630 503.4 542
M 488 630
L 501.6 630 488 630
M 640 445.3
L 640 433 588 433 569 542 640 542 640 518.7
Q 637.5634765625 519 635 519 629.1759765625 519 624 517.45 621.7384765625 516.764453125 619.6 515.75 613.734765625 513.084765625 608.8 508.15 598 497.35 598 482 598 466.65 608.8 455.8 619.65 445 635 445 637.5634765625 445 640 445.3
M 588 560
L 568 560 567 618 588 618 588 560 Z"/>

<path fill="#E3E3E3" stroke="none" d="
M 640 775
L 487.4 775 487.4 835.5
Q 487.4 841.5 493.4 841.5
L 640 841.5 640 775
M 501.6 699.4
L 508 699.4 640 699.4 640 682 487.4 682 487.4 775 640 775 640 714 508 714 508 701 640 701 640 699.4 508 699.4 501.6 699.4
M 413.6 655
L 413.6 704 413.6 843 413.6 950.75
Q 415.5970703125 951.2287109375 417.6 951.7 424.9689453125 953.39453125 432.4 955 434.39765625 955.426171875 436.4 955.85 452.101953125 959.1416015625 468.2 961.85 470.196875 962.2189453125 472.2 962.55 504.3427734375 967.88359375 538 971 539.9974609375 971.220703125 542 971.4 563.7052734375 973.32734375 586 974.35 587.99765625 974.463671875 590 974.55 598.5669921875 974.9154296875 607.2 975.15 609.1982421875 975.2029296875 611.2 975.25 623 975.5 634.95 975.55 635.55 975.5 636.25 975.55
L 640 975.55 640 966.75 640 864.2 613.2 864.2
Q 607.2 864.2 607.2 870.2
L 607.2 966.4 607.2 870.2
Q 607.2 864.2 613.2 864.2
L 640 864.2 640 841.5 493.4 841.5
Q 487.4 841.5 487.4 835.5
L 487.4 775 487.4 682 419.2 682 487.4 682 640 682 640 655 413.6 655
M 462.2 708
Q 468.2 708 468.2 714
L 468.2 953.7 468.2 714
Q 468.2 708 462.2 708
L 438.4 708
Q 432.4 708 432.4 714
L 432.4 947 432.4 714
Q 432.4 708 438.4 708
L 462.2 708
M 579 864.6
Q 585 864.6 585 870.6
L 585 923.4
Q 585 929.4 579 929.4
L 496 929.4
Q 490 929.4 490 923.4
L 490 870.6
Q 490 864.6 496 864.6
L 579 864.6
M 493.5 952.8
L 521.5 952.8 493.5 952.8
M 538 958.2
Q 538 952.2 544 952.2
L 580 952.2
Q 586 952.2 586 958.2
L 586 965.7 586 958.2
Q 586 952.2 580 952.2
L 544 952.2
Q 538 952.2 538 958.2
L 538 962.55 538 958.2
M 585 870.6
Q 585 864.6 579 864.6
L 496 864.6
Q 490 864.6 490 870.6
L 490 923.4
Q 490 929.4 496 929.4
L 579 929.4
Q 585 929.4 585 923.4
L 585 870.6
M 385 687
L 346 687 346 911 346 923.55 346 911 324.6 911 346 911 346 687 318 687 318 819 318 894 318 921.3
Q 319.99609375 922.08984375 322 922.85 333.889453125 927.2708984375 346 931.35 347.9970703125 932.034765625 350 932.7 367.2576171875 938.4076171875 385 943.35
L 385 843 385 704 385 687
M 640 390.95
Q 634.96015625 390.978515625 630 391.2
L 630 416 536.1 416
Q 506.1296875 431.8203125 480.3 457.65 442.54609375 495.40390625 426.15 542
L 475 542 475 630 486.4 630 486.4 542 503.4 542 503.4 630 640 630 640 618 601 618 601 560 640 560 640 542 569 542 588 433 640 433 640 390.95
M 516 575
L 516 542 558 542 558 575 558 618 516 618 516 575
M 568 560
L 588 560 588 618 567 618 568 560 Z"/>

<path fill="#999999" stroke="none" d="
M 413.6 704
L 400 704 400 843 413.6 843 413.6 704
M 400 704
L 385 704 385 843 400 843 400 704 Z"/>

<path fill="#FFFFFF" stroke="none" d="
M 629.3 467.9
Q 629.2 467.8 629.1 467.7 628.1234375 466.7234375 627 466 624.001171875 464 620.1 464 618.856640625 464 617.7 464.2 613.9203125 464.86796875 611.05 467.7 607.35 471.45 607.35 476.75 607.35 482.05 611.05 485.75 613.922265625 488.622265625 617.7 489.3 618.62421875 489.459375 619.6 489.5 619.8482421875 489.5 620.1 489.5 622.4 489.5 624.4 488.8 627 487.85 629.1 485.75 632.85 482.05 632.85 476.75 632.85 471.6 629.3 467.9 Z"/>

<path fill="#222222" stroke="none" d="
M 558 575
L 516 575 516 618 558 618 558 575
M 516 542
L 516 575 558 575 558 542 516 542
M 672 482
Q 672 466.65 661.15 455.8 652.1537109375 446.8037109375 640 445.3 637.5634765625 445 635 445 619.65 445 608.8 455.8 598 466.65 598 482 598 497.35 608.8 508.15 613.734765625 513.084765625 619.6 515.75
L 619.6 489.5
Q 618.62421875 489.459375 617.7 489.3 613.922265625 488.622265625 611.05 485.75 607.35 482.05 607.35 476.75 607.35 471.45 611.05 467.7 613.9203125 464.86796875 617.7 464.2 618.856640625 464 620.1 464 624.001171875 464 627 466 630.40859375 464 634.6 464 640.8 464 645.2 468.4 649.6 472.8 649.6 479
L 649.6 516.1
Q 651.86953125 515.153125 654 513.85 657.7947265625 511.520703125 661.15 508.15 672 497.35 672 482 Z"/>

<path fill="#666666" stroke="none" d="
M 897.5 704
L 882.5 704 882.5 843 897.5 843 897.5 704
M 882.5 704
L 868.9 704 868.9 843 882.5 843 882.5 704
M 713.9 566.1
Q 705 575.05 705 587.7 705 600.35 713.9 609.25 722.85 618.2 735.5 618.2 748.15 618.2 757.05 609.25 766 600.35 766 587.7 766 575.05 757.05 566.1 748.15 557.2 735.5 557.2 722.85 557.2 713.9 566.1
M 744.75 592.5
Q 739.45 592.5 735.7 588.75 732 585.05 732 579.75 732 574.45 735.7 570.7 739.45 567 744.75 567 750.05 567 753.75 570.7 757.5 574.45 757.5 579.75 757.5 585.05 753.75 588.75 750.05 592.5 744.75 592.5 Z"/>

<path fill="#AEAEAE" stroke="none" d="
M 964.5 687
L 897.5 687 897.5 704 897.5 843 897.5 942.65
Q 899.503125 942.121484375 901.5 941.55 919.2810546875 936.444140625 936.5 930.55 938.50390625 929.8931640625 940.5 929.2 952.6109375 924.9587890625 964.5 920.35
L 964.5 894 964.5 819 964.5 687
M 936.5 911
L 958.9 911 936.5 911 936.5 923.6 936.5 911 936.5 694 936.5 911 Z"/>

<path fill="#13256A" stroke="none" d="
M 773.4 714
L 773.4 701 640 701 508 701 508 714 640 714 773.4 714 Z"/>

<path fill="#0F0F0F" stroke="none" d="
M 649.6 516.1
L 649.6 479
Q 649.6 472.8 645.2 468.4 640.8 464 634.6 464 630.40859375 464 627 466 628.1234375 466.7234375 629.1 467.7 629.2 467.8 629.3 467.9 632.85 471.6 632.85 476.75 632.85 482.05 629.1 485.75 627 487.85 624.4 488.8 622.4 489.5 620.1 489.5 619.8482421875 489.5 619.6 489.5
L 619.6 515.75
Q 621.7384765625 516.764453125 624 517.45 629.1759765625 519 635 519 637.5634765625 519 640 518.7 645.07578125 518.068359375 649.6 516.1 Z"/>

<path fill="#313131" stroke="none" d="
M 735.7 588.75
Q 739.45 592.5 744.75 592.5 750.05 592.5 753.75 588.75 757.5 585.05 757.5 579.75 757.5 574.45 753.75 570.7 750.05 567 744.75 567 739.45 567 735.7 570.7 732 574.45 732 579.75 732 585.05 735.7 588.75 Z"/>
</g>

<g id="Layer18_0_FILL">
<path fill="#162973" stroke="none" d="
M 778.2 819
L 778.2 797.05 728.2 790.05 675.2 796.05 675.2 787.05 640 787.05 640 829 675.2 829 675.2 820 728.2 826 778.2 819
M 750.8 726.1
L 737.8 721.1 640 721.1 640 752 640 753.6 640 763.05 737.8 763.05 750.8 758.05 778.8 758.05 778.8 726.1 750.8 726.1 Z"/>

<path fill="#1E3799" stroke="none" d="
M 640 787.05
L 545.2 787.05 532.2 792.05 504.2 792.05 504.2 824 532.2 824 545.2 829 640 829 640 787.05
M 554.8 724.1
L 504.8 731.1 504.8 753.05 554.8 760.05 607.8 754.05 607.8 763.05 640 763.05 640 753.6 640 752 640 721.1 607.8 721.1 607.8 730.1 554.8 724.1 Z"/>
</g>

<path id="Layer19_0_1_STROKES" stroke="#000000" stroke-width="5" stroke-linejoin="round" stroke-linecap="round" fill="none" d="
M 640 445.3
Q 652.1537109375 446.8037109375 661.15 455.8 672 466.65 672 482 672 497.35 661.15 508.15 657.7947265625 511.520703125 654 513.85 651.86953125 515.153125 649.6 516.125 645.07578125 518.068359375 640 518.7
M 640 445.3
Q 637.5634765625 445 635 445 619.65 445 608.8 455.8 598 466.65 598 482 598 497.35 608.8 508.15 613.734765625 513.084765625 619.6 515.775
M 640 518.7
Q 637.5634765625 519 635 519 629.1759765625 519 624 517.45 621.7384765625 516.764453125 619.6 515.775"/>

<path id="Layer19_0_2_STROKES" stroke="#CCCCCC" stroke-width="5" stroke-linejoin="round" stroke-linecap="round" fill="none" d="
M 810 630
L 834 630 844 630
M 640 630
L 773 630
M 810 630
L 799 630 773 630
M 844 630
L 866.1 630"/>

<path id="Layer19_0_3_STROKES" stroke="#000000" stroke-opacity="0.2" stroke-width="8" stroke-linejoin="round" stroke-linecap="round" fill="none" d="
M 709.375 527
L 694.05 439
M 640 775
L 793.4 775 793.4 682 640 682
M 814.6 951.925
L 814.6 714 814.6 710
Q 814.6 704 820.6 704
L 844.4 704
Q 850.4 704 850.4 710
L 850.4 944.75
M 793.4 682
L 863.3 682
M 432.4 947.025
L 432.4 714
Q 432.4 708 438.4 708
L 462.2 708
Q 468.2 708 468.2 714
L 468.2 953.725
M 640 682
L 487.4 682 487.4 775 640 775
M 640 841.5
L 787.4 841.5
Q 793.4 841.5 793.4 835.5
L 793.4 775
M 419.2 682
L 487.4 682
M 496 864.6
L 579 864.6
Q 585 864.6 585 870.6
L 585 923.4
Q 585 929.4 579 929.4
L 496 929.4
Q 490 929.4 490 923.4
L 490 870.6
Q 490 864.6 496 864.6 Z
M 607.2 966.425
L 607.2 870.2
Q 607.2 864.2 613.2 864.2
L 640 864.2
M 640 841.5
L 493.4 841.5
Q 487.4 841.5 487.4 835.5
L 487.4 775
M 493.5 952.8
L 521.5 952.8
M 538 962.575
L 538 958.2
Q 538 952.2 544 952.2
L 580 952.2
Q 586 952.2 586 958.2
L 586 965.725
M 346 923.55
L 346 911 324.6 911
M 936.5 694
L 936.5 911 958.9 911
M 936.5 911
L 936.5 923.6
M 704 964.825
L 704 869.2
Q 704 863.2 710 863.2
L 787 863.2
Q 793 863.2 793 869.2
L 793 955.5
M 640 864.2
L 674.8 864.2
Q 680.8 864.2 680.8 870.2
L 680.8 965.95
M 400 843
L 400 704
M 882.5 843
L 882.5 704
M 346 687
L 346 911"/>

<path id="Layer19_0_4_STROKES" stroke="#1E3799" stroke-width="5" stroke-linejoin="round" stroke-linecap="round" fill="none" d="
M 558 575
L 558 542 516 542 516 575 558 575 558 618 516 618 516 575"/>

<path id="Layer19_0_5_STROKES" stroke="#E3E3E3" stroke-width="5" stroke-linejoin="round" stroke-linecap="round" fill="none" d="
M 486.4 630
L 475 630 415.2 630
M 488 630
L 501.6 630
M 503.4 630
L 640 630"/>

<path id="Layer19_0_6_STROKES" stroke="#1E3799" stroke-width="8" stroke-linejoin="round" stroke-linecap="round" fill="none" d="
M 773.4 699.4
L 780.6 699.4
M 501.6 699.4
L 508 699.4 640 699.4"/>

<path id="Layer19_0_7_STROKES" stroke="#162973" stroke-width="8" stroke-linejoin="round" stroke-linecap="round" fill="none" d="
M 640 699.4
L 773.4 699.4"/>
</defs>

<g transform="matrix( 1, 0, 0, 1, 0,0) ">
<use xlink:href="#Layer19_0_FILL"/>

<use xlink:href="#Layer19_0_1_STROKES"/>

<use xlink:href="#Layer19_0_2_STROKES"/>

<use xlink:href="#Layer19_0_3_STROKES"/>

<use xlink:href="#Layer19_0_4_STROKES"/>

<use xlink:href="#Layer19_0_5_STROKES"/>

<use xlink:href="#Layer19_0_6_STROKES"/>

<use xlink:href="#Layer19_0_7_STROKES"/>
</g>

<g transform="matrix( 1, 0, 0, 1, 0,0) ">
<use xlink:href="#Layer18_0_FILL"/>
</g>
</svg>
