<?xml version="1.0" encoding="UTF-8"?><svg id="a" xmlns="http://www.w3.org/2000/svg" xmlns:xlink="http://www.w3.org/1999/xlink" viewBox="0 0 139.534 28">
<title>Roborock-logo - brandlogos.net</title><defs><clipPath id="b"><rect width="28" height="28" style="fill:none;"/></clipPath></defs><path d="M126.292,10.3262v-1.8418h-6.031c-3.032,0-5.491,2.291-5.491,5.1098v.584c0,2.8189,2.459,5.1099,5.491,5.1099h6.031v-1.8306h-5.784c-2.156,0-3.897-1.5161-3.897-3.3803v-.3931c0-1.8755,1.741-3.3804,3.897-3.3804h5.784v.0225Z" style="fill:#ffffff;"/><path d="M40.4917,8.5078c-3.0322,0-5.4917,2.291-5.4917,5.1099v5.7051h1.8418v-5.604c0-1.8643,1.7407-3.3804,3.897-3.3804h5.2222v-1.8306h-5.4693Z" style="fill:#ffffff;"/><path d="M94.4097,8.5078c-3.0323,0-5.4917,2.291-5.4917,5.1099v5.7051h1.8418v-5.604c0-1.8643,1.7407-3.3804,3.8969-3.3804h5.2222v-1.8306h-5.4692Z" style="fill:#ffffff;"/><path d="M129.842,5.5703h-1.842v13.7574h1.842v-1.6734l2.942-2.7964,4.234,4.4024h2.516l-5.425-5.7051,4.931-4.9414h-2.606l-6.592,6.4845V5.5703Z" style="fill:#ffffff;"/><path d="M55.0591,8.54c-.3594-.0898-1.1118-.1572-1.999-.1572s-1.6285.0674-1.9991.1572c-2.5268.4605-4.436,2.5269-4.436,5.0201v.584c0,2.4931,1.9092,4.5595,4.436,5.02.3594.0898,1.1119.1572,1.9991.1572s1.6284-.0674,1.999-.1572c2.5269-.4605,4.436-2.5269,4.436-5.02v-.584c0-2.4932-1.9091-4.5596-4.436-5.0201ZM57.6646,14.0542v.1011c-.0562,1.6172-1.4151,2.9424-3.2007,3.2231-.3145.0562-.8311.1011-1.4038.1011s-1.0782-.0449-1.4038-.1011c-1.7857-.2807-3.1333-1.6059-3.1895-3.2231v-.4942c0-1.6621,1.3813-3.0434,3.2007-3.3242.3144-.0561.8198-.1011,1.4038-.1011s1.0781.045,1.4038.1011c1.8193.292,3.2007,1.6621,3.2007,3.3242v.3931h-.0112Z" style="fill:#ffffff;"/><path d="M83.1021,8.54c-.3594-.0898-1.1119-.1572-1.9991-.1572s-1.6284.0674-1.999.1572c-2.5269.4605-4.436,2.5269-4.436,5.0201v.584c0,2.4931,1.9091,4.5595,4.436,5.02.3594.0898,1.1118.1572,1.999.1572s1.6285-.0674,1.9991-.1572c2.5268-.4605,4.436-2.5269,4.436-5.02v-.584c0-2.4932-1.9092-4.5596-4.436-5.0201ZM85.7075,14.0542v.1011c-.0561,1.6172-1.415,2.9424-3.2007,3.2231-.3144.0562-.831.1011-1.4038.1011s-1.0781-.0449-1.4038-.1011c-1.7856-.2807-3.1333-1.6059-3.1894-3.2231v-.4942c0-1.6621,1.3813-3.0434,3.2007-3.3242.3144-.0561.831-.1011,1.4038-.1011s1.0781.045,1.4038.1011c1.8193.292,3.2007,1.6621,3.2007,3.3242v.3931h-.0113Z" style="fill:#ffffff;"/><path d="M108.997,8.54c-.36-.0898-1.112-.1572-1.999-.1572-.888,0-1.64.0674-1.999.1572-2.527.4605-4.437,2.5269-4.437,5.0201v.584c0,2.4931,1.91,4.5595,4.437,5.02.359.0898,1.111.1572,1.999.1572.887,0,1.628-.0674,1.999-.1572,2.526-.4605,4.436-2.5269,4.436-5.02v-.584c0-2.4932-1.91-4.5596-4.436-5.0201ZM111.602,14.0542v.1011c-.056,1.6172-1.415,2.9424-3.201,3.2231-.325.0562-.831.1011-1.403.1011-.573,0-1.079-.0449-1.404-.1011-1.786-.2807-3.134-1.6059-3.19-3.2231v-.4942c0-1.6621,1.382-3.0434,3.201-3.3242.314-.0561.831-.1011,1.404-.1011s1.078.045,1.404.1011c1.819.292,3.2,1.6621,3.2,3.3242v.3931h-.011Z" style="fill:#ffffff;"/><path d="M68.9854,8.542c-.3482-.0898-1.0782-.1572-1.9317-.1572s-1.5722.0674-1.9316.1572c-.9209.1685-1.7632.584-2.4483,1.1455v-4.1328h-1.8418v8.5913c0,2.4932,1.8418,4.5596,4.2901,5.02.3481.0899,1.0781.146,1.9316.146s1.5835-.0674,1.9317-.146c2.4482-.4604,4.29-2.5268,4.29-5.02v-.584c0-2.4931-1.8418-4.5596-4.29-5.02ZM71.4898,14.0562v.101c-.0562,1.6172-1.3702,2.9424-3.0884,3.2232-.3145.0561-.7974.1011-1.3477.1011s-1.0444-.045-1.3476-.1011c-1.7183-.2808-3.0323-1.606-3.0772-3.2232v-.4941c0-1.6621,1.3252-3.0435,3.0884-3.3242.3032-.0562.7974-.1011,1.3476-.1011s1.0445.0449,1.3477.1011c1.752.292,3.0884,1.6621,3.0884,3.3242v.3931h-.0112Z" style="fill:#ffffff;"/><g style="clip-path:url(#b);"><path d="M14.214.0016C6.4832-.1157.1229,6.0553.0017,13.7861c-.1174,7.7308,6.0537,14.0949,13.7845,14.2123,7.7308.1173,14.0949-6.0537,14.2122-13.7845C28.1158,6.4831,21.9448.1228,14.214.0016Z" style="fill:#ea0029;"/><path d="M21.3929,21.0756H6.6073c-.7724,0-1.1586-.939-.6096-1.4805l.265-.2612,10.8403-10.7116h-9.0342c-.0606,0-.0947-.0757-.0492-.1174l1.5865-1.5713h9.5795c.7724,0,1.1586.939.6096,1.4805l-.212.2083-10.8555,10.7116h10.5563l-4.1271-4.1234,1.2344-1.2343,5.3501,5.3577.265.265c.5452.5452.159,1.4767-.6134,1.4767Z" style="fill:#fff;"/></g></svg>
